<svg width="50" height="50" viewBox="0 0 50 50" fill="none" xmlns="http://www.w3.org/2000/svg">
<path d="M25 2C30.1109 2 34.095 2.23199 37.2139 2.83203C40.3224 3.4301 42.4225 4.36695 43.8975 5.66699C46.8289 8.25094 48 12.9092 48 22.2227C48 28.2261 47.4617 32.6609 46.001 35.5576C45.2985 36.9507 44.4063 37.9372 43.2803 38.5938C42.1428 39.2569 40.6232 39.667 38.542 39.667C35.886 39.667 33.8995 40.2633 32.3496 41.3135C30.8359 42.3393 29.9213 43.6829 29.2363 44.7607C28.4873 45.9393 28.0749 46.6615 27.4648 47.209C26.9879 47.6369 26.3238 48 25.001 48C23.6781 48 23.0141 47.637 22.5371 47.209C21.9268 46.6614 21.5138 45.9395 20.7646 44.7607C20.0795 43.6828 19.1653 42.3383 17.6514 41.3125C16.1014 40.2624 14.115 39.667 11.459 39.667C9.38826 39.667 7.87346 39.2462 6.73633 38.5693C5.60741 37.8974 4.70967 36.8891 4.00293 35.4756C2.53724 32.5439 2.00003 28.1012 2 22.2227C2 13.0272 3.1676 8.35721 6.1084 5.74316C7.5875 4.42846 9.69112 3.4747 12.7959 2.86133C15.9117 2.24581 19.8932 2 25 2Z" stroke="#D9D9D9" stroke-width="4" stroke-linecap="round" stroke-linejoin="round"/>
<path d="M27.0833 18.75H35.4166" stroke="#D9D9D9" stroke-width="4" stroke-linecap="round" stroke-linejoin="round"/>
<path d="M14.5833 27.0835H35.4166" stroke="#D9D9D9" stroke-width="4" stroke-linecap="round" stroke-linejoin="round"/>
</svg>
