<svg width="50" height="50" viewBox="0 0 50 50" fill="none" xmlns="http://www.w3.org/2000/svg">
<path d="M24.9997 2.1665C32.5896 2.1665 38.4487 3.71903 42.3649 7.63525C46.281 11.5514 47.8336 17.4099 47.8337 24.9995C47.8337 27.3011 45.5078 28.3892 43.7907 27.7896C42.3195 27.2756 40.429 26.9995 38.0212 26.9995C33.621 26.9995 31.0153 27.9155 29.4655 29.4653C27.9157 31.0151 26.9997 33.6209 26.9997 38.021C26.9997 40.4288 27.2758 42.3193 27.7897 43.7905C28.3894 45.5076 27.3013 47.8335 24.9997 47.8335C17.4101 47.8335 11.5516 46.2808 7.63544 42.3647C3.71922 38.4485 2.16669 32.5894 2.16669 24.9995C2.16673 17.4098 3.71927 11.5514 7.63544 7.63525C11.5516 3.71909 17.41 2.16655 24.9997 2.1665Z" stroke="#D9D9D9" stroke-width="4" stroke-linecap="round" stroke-linejoin="round"/>
<path d="M15.625 27.083C17.3508 27.083 18.7498 28.4823 18.75 30.208C18.75 31.9339 17.3509 33.333 15.625 33.333C13.8991 33.333 12.5 31.9339 12.5 30.208C12.5002 28.4823 13.8992 27.083 15.625 27.083ZM13.542 16.667C15.2677 16.6672 16.667 18.0662 16.667 19.792C16.6668 21.5176 15.2676 22.9168 13.542 22.917C11.8162 22.917 10.4172 21.5177 10.417 19.792C10.417 18.0661 11.8161 16.667 13.542 16.667ZM32.292 12.5C34.0177 12.5002 35.417 13.8992 35.417 15.625C35.417 17.3508 34.0177 18.7498 32.292 18.75C30.5661 18.75 29.167 17.3509 29.167 15.625C29.167 13.8991 30.5661 12.5 32.292 12.5ZM21.875 8.33301C23.6008 8.33301 24.9998 9.73227 25 11.458C25 13.1839 23.6009 14.583 21.875 14.583C20.1491 14.583 18.75 13.1839 18.75 11.458C18.7502 9.73227 20.1492 8.33301 21.875 8.33301Z" fill="#D9D9D9"/>
</svg>
