<svg width="40" height="42" viewBox="0 0 40 42" fill="none" xmlns="http://www.w3.org/2000/svg">
<path d="M13.9805 7.00391C15.224 0.332501 24.776 0.332499 26.0195 7.00391C26.2592 8.28829 27.5858 9.0523 28.8125 8.61914C35.218 6.35747 39.9757 14.644 34.833 19.0508C33.8423 19.8998 33.8423 21.4343 34.833 22.2832C39.9753 26.69 35.218 34.9756 28.8125 32.7139C27.5857 32.2807 26.259 33.0455 26.0195 34.3301C24.7758 41.0011 15.2242 41.0011 13.9805 34.3301C13.741 33.0455 12.4143 32.2807 11.1875 32.7139C4.78204 34.9756 0.0246981 26.69 5.16699 22.2832C6.1577 21.4343 6.15765 19.8998 5.16699 19.0508C0.0243266 14.644 4.78199 6.35748 11.1875 8.61914C12.4142 9.0523 13.7408 8.28829 13.9805 7.00391Z" stroke="#7F7F7F" stroke-width="4" stroke-linejoin="round"/>
<circle cx="6.66667" cy="6.66667" r="4.66667" transform="matrix(-1 0 0 1 26.6666 14)" stroke="#7F7F7F" stroke-width="4"/>
</svg>
