<svg width="40" height="41" viewBox="0 0 40 41" fill="none" xmlns="http://www.w3.org/2000/svg">
<path d="M8.29297 3.32153C11.9521 -1.10674 28.0495 -1.10739 31.708 3.32153C32.3713 4.12471 32.7925 5.56895 33.04 7.39478C38.2604 8.33678 39.8479 10.3578 39.9893 14.3723L40 15.0002C39.9999 19.5024 38.4797 21.681 32.7832 22.6487C32.6716 23.6103 32.5296 24.3389 32.2617 25.0774L32.1582 25.3459C31.046 28.1125 28.4016 30.504 25.543 31.3C24.2269 31.6665 22.8175 31.6672 20 31.6672L18.1309 31.6614C16.6215 31.6456 15.6223 31.5859 14.7061 31.3645L14.458 31.3C11.5992 30.5041 8.95398 28.1127 7.8418 25.3459L7.73926 25.0774C7.47112 24.3383 7.32676 23.6095 7.21484 22.6467C1.52016 21.6788 0.000122506 19.5018 0 15.0002C0.000104945 10.5667 1.47415 8.38568 6.95898 7.39575C7.20667 5.56924 7.62941 4.12479 8.29297 3.32153ZM20 4.00024C17.7994 4.0003 15.6857 4.25041 14.0088 4.69653C13.174 4.91864 12.5204 5.16978 12.0469 5.41626C11.8146 5.5372 11.6476 5.64582 11.5342 5.73169C11.4801 5.77263 11.4409 5.80618 11.415 5.83032C11.3867 5.89541 11.2567 6.17741 11.1152 6.81958C10.9284 7.66785 10.793 8.80879 10.7227 10.2112C10.5824 13.0085 10.7197 16.4158 10.9736 19.7307C11.179 22.4113 11.26 23.0515 11.5 23.7131C12.1038 25.3773 13.8249 26.9726 15.5303 27.4475C16.1975 27.6332 16.9628 27.6672 20 27.6672C23.037 27.6672 23.8026 27.6332 24.4697 27.4475C26.1751 26.9725 27.8972 25.3773 28.501 23.7131C28.741 23.0516 28.821 22.4111 29.0264 19.7307C29.2803 16.4158 29.4176 13.0085 29.2773 10.2112C29.207 8.80869 29.0716 7.6679 28.8848 6.81958C28.7424 6.17315 28.6112 5.8921 28.584 5.82935C28.5582 5.80532 28.52 5.77201 28.4668 5.73169C28.3534 5.64579 28.1866 5.53733 27.9541 5.41626C27.4807 5.16975 26.827 4.91868 25.9922 4.69653C24.3153 4.25038 22.2007 4.00024 20 4.00024ZM6.67871 11.5393C6.14109 11.6699 5.70886 11.808 5.3623 11.9524C4.55918 12.287 4.40519 12.5587 4.33789 12.6848C4.19987 12.9437 4.00004 13.5562 4 15.0002C4.00005 16.4437 4.19987 17.0557 4.33789 17.3147C4.40509 17.4407 4.55849 17.7131 5.3623 18.0481C5.75055 18.2098 6.2467 18.3617 6.87793 18.5051C6.72509 16.1476 6.63822 13.742 6.67871 11.5393ZM33.3203 11.5403C33.3606 13.7424 33.2739 16.1473 33.1211 18.5042C33.7527 18.3607 34.2493 18.2099 34.6377 18.0481C35.4415 17.7131 35.5949 17.4407 35.6621 17.3147C35.8001 17.0557 36 16.4437 36 15.0002C36 13.5562 35.8001 12.9437 35.6621 12.6848C35.5948 12.5587 35.4408 12.287 34.6377 11.9524C34.291 11.8079 33.8583 11.6709 33.3203 11.5403Z" fill="white"/>
<path d="M20 31.667V38.3337H25H15" stroke="white" stroke-width="4" stroke-linecap="round" stroke-linejoin="round"/>
</svg>
