<svg width="50" height="50" viewBox="0 0 50 50" fill="none" xmlns="http://www.w3.org/2000/svg">
<path d="M21.4844 3.20801C23.6391 1.6037 26.5621 1.59714 28.7227 3.19141C32.2777 5.8146 37.1578 9.49376 41.1582 12.7979C43.1634 14.454 44.91 15.9857 46.1514 17.2256C46.7755 17.849 47.2308 18.3581 47.5205 18.7441C47.6313 18.8917 47.6997 19.0011 47.7412 19.0723C47.9666 22.4586 48.524 30.7802 46.6904 40.0938C46.22 42.4829 45.3425 43.9823 44.0684 45.0059C42.7441 46.0696 40.7547 46.8112 37.6953 47.1934C36.1736 47.3834 34.6663 47.5393 33.1699 47.6621C27.6527 48.1149 22.2726 48.1123 16.835 47.6543C15.3941 47.5329 13.948 47.3798 12.4941 47.1943C9.44141 46.8049 7.47831 46.0557 6.16504 44.9902C4.89348 43.9585 4.00982 42.4485 3.48535 40.0518C1.43778 30.6944 1.95987 22.3657 2.41797 19.1787C2.46623 19.0957 2.55386 18.9631 2.69922 18.7773C3.0105 18.3796 3.48423 17.8631 4.11816 17.2383C5.37989 15.9948 7.13246 14.4623 9.13184 12.8086C13.1218 9.50835 17.9587 5.83302 21.4844 3.20801Z" stroke="#F6C945" stroke-width="4" stroke-linecap="round" stroke-linejoin="round"/>
</svg>
